<svg width="65" height="65" viewBox="0 0 65 65" fill="none" xmlns="http://www.w3.org/2000/svg">
  <path
    d="M32.3334 46.5C31.9852 46.5 31.6431 46.4091 31.3409 46.2363L13.8334 36.23C13.6812 36.1422 13.5087 36.096 13.333 36.096C13.1573 36.0961 12.9848 36.1424 12.8327 36.2304C12.6807 36.3183 12.5545 36.4448 12.4668 36.597C12.3791 36.7492 12.3331 36.9218 12.3334 37.0975V46.5C12.3331 46.857 12.4283 47.2075 12.6092 47.5152C12.7901 47.8229 13.0501 48.0767 13.3621 48.25L31.3621 58.25C31.6592 58.4151 31.9935 58.5017 32.3334 58.5017C32.6733 58.5017 33.0075 58.4151 33.3046 58.25L51.3046 48.25C51.6167 48.0767 51.8766 47.8229 52.0575 47.5152C52.2384 47.2075 52.3337 46.857 52.3334 46.5V37.0975C52.3336 36.9218 52.2876 36.7492 52.2 36.597C52.1123 36.4448 51.9861 36.3183 51.834 36.2304C51.682 36.1424 51.5094 36.0961 51.3337 36.096C51.1581 36.096 50.9855 36.1422 50.8334 36.23L33.3259 46.2363C33.0236 46.4091 32.6815 46.5 32.3334 46.5Z"
    fill="#FACC15" />
  <path
    d="M62.3234 24.3125C62.3234 24.3125 62.3234 24.3025 62.3234 24.2987C62.291 23.9817 62.1834 23.677 62.0095 23.41C61.8355 23.143 61.6003 22.9214 61.3234 22.7637L33.3234 6.76375C33.0211 6.59098 32.679 6.50011 32.3309 6.50011C31.9827 6.50011 31.6406 6.59098 31.3384 6.76375L3.33836 22.7637C3.03235 22.9387 2.77801 23.1914 2.60112 23.4963C2.42422 23.8013 2.33105 24.1475 2.33105 24.5C2.33105 24.8525 2.42422 25.1987 2.60112 25.5036C2.77801 25.8085 3.03235 26.0613 3.33836 26.2362L31.3384 42.2362C31.6406 42.409 31.9827 42.4999 32.3309 42.4999C32.679 42.4999 33.0211 42.409 33.3234 42.2362L57.9584 28.16C57.9964 28.138 58.0396 28.1265 58.0836 28.1265C58.1276 28.1265 58.1708 28.1382 58.2088 28.1602C58.2468 28.1823 58.2784 28.214 58.3002 28.2521C58.3221 28.2903 58.3335 28.3335 58.3334 28.3775V46.4437C58.3334 47.52 59.1609 48.4437 60.2371 48.4975C60.5075 48.5105 60.7778 48.4685 61.0315 48.374C61.2852 48.2795 61.5171 48.1345 61.7131 47.9477C61.9091 47.761 62.0651 47.5363 62.1717 47.2875C62.2783 47.0386 62.3333 46.7707 62.3334 46.5V24.5C62.3332 24.4374 62.3299 24.3748 62.3234 24.3125V24.3125Z"
    fill="#FB923C" />
</svg>